<svg width="30" height="30" viewBox="0 0 30 30" fill="none" xmlns="http://www.w3.org/2000/svg">
<path d="M9.21943 25.0163C8.77125 24.757 8.19775 24.9101 7.9385 25.3583C7.67924 25.8065 7.83239 26.38 8.28058 26.6393L9.21943 25.0163ZM3.36078 21.7194C3.62003 22.1676 4.19353 22.3208 4.64171 22.0615C5.08989 21.8023 5.24304 21.2288 4.98379 20.7806L3.36078 21.7194ZM26.5625 15C26.5625 21.3858 21.3858 26.5625 15 26.5625V28.4375C22.4214 28.4375 28.4375 22.4214 28.4375 15H26.5625ZM3.4375 15C3.4375 8.61421 8.61421 3.4375 15 3.4375V1.5625C7.57868 1.5625 1.5625 7.57868 1.5625 15H3.4375ZM19.375 17.8125C15.4055 17.8125 12.1875 14.5945 12.1875 10.625H10.3125C10.3125 15.6301 14.3699 19.6875 19.375 19.6875V17.8125ZM25.5316 14.3363C24.2715 16.4216 21.9853 17.8125 19.375 17.8125V19.6875C22.6686 19.6875 25.5509 17.9299 27.1365 15.3059L25.5316 14.3363ZM12.1875 10.625C12.1875 8.01478 13.5784 5.7285 15.6638 4.46834L14.6941 2.86356C12.0701 4.44913 10.3125 7.33136 10.3125 10.625H12.1875ZM15 3.4375C14.8894 3.4375 14.7596 3.3876 14.6655 3.2896C14.5858 3.20659 14.5673 3.12805 14.5629 3.09629C14.5576 3.05734 14.5603 2.94446 14.6941 2.86356L15.6638 4.46834C16.2928 4.08831 16.495 3.39248 16.421 2.84534C16.3443 2.27657 15.8958 1.5625 15 1.5625V3.4375ZM27.1365 15.3059C27.0555 15.4398 26.9426 15.4424 26.9038 15.4371C26.872 15.4328 26.7934 15.4143 26.7104 15.3345C26.6124 15.2404 26.5625 15.1106 26.5625 15H28.4375C28.4375 14.1043 27.7234 13.6558 27.1546 13.579C26.6075 13.505 25.9116 13.7073 25.5316 14.3363L27.1365 15.3059ZM15 26.5625C12.8924 26.5625 10.9192 25.9995 9.21943 25.0163L8.28058 26.6393C10.258 27.7831 12.554 28.4375 15 28.4375V26.5625ZM4.98379 20.7806C4.00054 19.0809 3.4375 17.1076 3.4375 15H1.5625C1.5625 17.446 2.21689 19.742 3.36078 21.7194L4.98379 20.7806Z" fill="#1C274C"/>
</svg>
