<svg width="829" height="655" viewBox="0 0 829 655" fill="none" xmlns="http://www.w3.org/2000/svg">
    <path d="M352.854 1023.09L0.938792 677.479C0.938792 677.479 240.316 663.945 352.853 582.229C448.981 512.429 489.586 461.085 478.086 382.183C469.175 321.042 448.06 280.501 453.539 213.763C461.919 111.703 521.36 40.4555 619.829 12.5971C688.419 -6.80822 833.278 3.30671 833.278 3.30671C833.278 3.30671 709.257 93.8079 701.457 149.764C688.078 245.757 729.09 359.394 759.384 457.092C791.593 560.968 831.665 711.358 752.113 803.842C673.565 895.159 352.854 1023.09 352.854 1023.09Z"
          fill="url(#paint0_linear_29_207)"/>
    <defs>
        <linearGradient id="paint0_linear_29_207" x1="273.693" y1="828.317" x2="890.529" y2="118.585"
                        gradientUnits="userSpaceOnUse">
            <stop stop-color="#EC53B0"/>
            <stop offset="0.0001" stop-color="#EC53B0"/>
            <stop offset="0.421875" stop-color="#9D44C0"/>
            <stop offset="0.78125" stop-color="#4D2DB7"/>
            <stop offset="1" stop-color="#0E21A0"/>
        </linearGradient>
    </defs>
</svg>
